<svg width="16" height="19" viewBox="0 0 16 19" fill="none" xmlns="http://www.w3.org/2000/svg">
<path d="M13.25 4.08333L12.5492 15.4288C12.4879 16.4225 12.4572 16.9194 12.2584 17.2961C12.0833 17.6278 11.8192 17.8944 11.501 18.0609C11.1395 18.25 10.6781 18.25 9.75542 18.25H6.24455C5.32186 18.25 4.86052 18.25 4.49903 18.0609C4.18077 17.8944 3.91672 17.6278 3.74165 17.2961C3.54281 16.9194 3.51212 16.4225 3.45075 15.4288L2.75 4.08333M1 4.08333H15M11.5 4.08333L11.2632 3.31651C11.0337 2.5734 10.9189 2.20185 10.7061 1.92715C10.5182 1.68457 10.2768 1.4968 10.0042 1.38107C9.6954 1.25 9.33262 1.25 8.6069 1.25H7.3931C6.66738 1.25 6.3046 1.25 5.99582 1.38107C5.72318 1.4968 5.48182 1.68457 5.29388 1.92715C5.08104 2.20185 4.96631 2.5734 4.73681 3.31651L4.5 4.08333M9.75 7.86111V14.4722M6.25 7.86111V14.4722" stroke="#FFFBEF" stroke-linecap="round" stroke-linejoin="round"/>
</svg>
