<svg width="125" height="125" viewBox="0 0 125 125" fill="none" xmlns="http://www.w3.org/2000/svg">
<path d="M86.45 11.3635C78.4338 11.3635 71.9336 16.8505 71.9336 23.6241V64.9686C71.9336 69.6186 75.0062 73.669 79.5283 75.7458V113.636H88.979V11.5665C88.1619 11.4478 87.3078 11.3635 86.45 11.3635Z" fill="#D7263D"/>
<path d="M60.5691 36.1299C60.5691 35.5385 60.5468 34.9471 60.5022 34.3745L58.7917 11.3635H55.9055V36.3802H53.3731V11.3667H50.5064V36.3802H47.9741V11.3667H45.1074V36.3802H42.5778V11.3635H39.6888L37.9309 34.071C37.8724 34.7469 37.8418 35.4352 37.8418 36.1299C37.8418 43.0326 40.9508 49.1311 45.6729 52.7576V113.636H52.8605L52.8382 52.6606C57.5046 49.0309 60.5691 42.9794 60.5691 36.1299Z" fill="#D7263D"/>
</svg>
