<svg width="43" height="36" viewBox="0 0 43 36" fill="none" xmlns="http://www.w3.org/2000/svg">
<g clip-path="url(#clip0_317_4370)">
<path d="M26.4629 15.5608H34.6491L42.6252 23.295L34.6491 23.5019L26.4629 15.5608L18.2734 23.5019Z" fill="#00587A"/>
<path d="M26.4629 15.5608H34.6491L42.6252 23.295L34.6491 23.5019L26.4629 15.5608ZM26.4629 15.5608L18.2734 23.5019" stroke="#00587A" stroke-miterlimit="10"/>
<path d="M17.582 11.5872H25.7714L29.8645 15.5608H26.4621L24.0686 17.8795L17.582 11.5872L9.39258 19.5313Z" fill="#00587A"/>
<path d="M17.582 11.5872H25.7714L29.8645 15.5608H26.4621L24.0686 17.8795L17.582 11.5872ZM17.582 11.5872L9.39258 19.5313" stroke="#00587A" stroke-miterlimit="10"/>
<path d="M27.7671 19.5312H25.084V22.5632H27.7671V19.5312Z" fill="#00587A"/>
<path d="M18.8101 16.0796H16.127V19.1115H18.8101V16.0796Z" fill="#00587A"/>
<path d="M34.5495 25.6999C33.7115 27.1998 31.6271 30.4513 27.5066 32.8111C24.2057 34.7054 20.9713 35.238 18.7157 35.3455C17.1349 35.42 15.5526 35.2492 14.0299 34.8299C11.9001 34.2424 8.93829 33.0397 6.21329 30.5324C2.89003 27.4731 1.60669 24.0276 1.12167 22.4196C0.770452 20.9797 0.462346 18.9702 0.666016 16.6014C0.999643 11.5002 3.95563 5.54497 4.9995 4.00006C4.75562 6.10755 1.79539 14.4785 3.14155 19.4348C3.49623 20.7416 3.97203 21.8896 4.47648 22.876C7.04143 28.1876 9.72353 22.9193 14.3034 25.59C14.3034 25.59 11.3841 26.6593 11.9066 28.5378C12.2018 29.603 13.4749 30.1219 14.4939 29.6449C14.9567 29.4266 15.4982 29.0578 16.0926 28.4429C18.057 26.4144 21.2074 27.6512 21.2074 27.6512C21.2074 27.6512 17.8054 29.3369 20.1085 30.7667C20.9494 31.2897 22.4667 30.2008 23.3234 29.1618C23.6318 28.7887 23.9959 28.4677 24.3941 28.1903C25.0362 27.7415 25.9433 27.2969 26.8199 27.5225C26.8199 27.5225 25.5642 31.0631 30.0731 28.6235C33.2611 26.9012 34.5463 25.6996 34.5463 25.6996L34.5495 25.6999Z" fill="#00587A"/>
<path d="M11.6855 3.89465L11.3523 4.49802C10.798 4.64198 10.2412 4.75809 9.68326 4.92049C8.33632 5.31996 6.51798 6.24838 5.24166 6.88429C5.0772 6.96984 4.22724 7.48645 4.193 7.45473L4.47179 6.07793L5.82782 5.5675C7.51325 5.12689 9.42599 4.24402 11.2586 3.90583C11.3736 3.88703 11.6617 3.82612 11.6824 3.89148L11.6855 3.89465Z" fill="#9B1C24"/>
<path d="M11.9306 3.40951C11.3607 3.54074 10.7826 3.61618 10.2023 3.77804C9.36257 4.00768 8.49494 4.33547 7.6745 4.55632C7.18405 4.69258 6.72072 4.76156 6.25269 4.89219C5.79103 5.02298 5.04688 5.24878 4.62734 5.34971C4.53772 5.36914 4.85771 4.52146 4.88989 4.37709C5.24246 4.2807 5.50933 4.04324 5.86887 3.92231C6.64249 3.66325 7.39175 3.74951 8.23038 3.56617C9.60037 3.26609 10.9702 2.9722 12.32 2.71796C12.405 2.75709 12.0034 3.29702 11.9306 3.40951Z" fill="#9B1C24"/>
<path d="M28.7872 8.45723C28.8395 8.52954 28.7486 8.60453 28.7786 8.6763C28.7786 8.6763 28.7786 8.6763 28.501 8.50024C28.0413 8.28826 27.7974 8.05008 27.2306 7.92504C25.7474 7.5151 21.8831 7.223 20.1919 7.11682C18.6004 6.96983 16.6485 7.11053 15.5887 6.70475C14.9524 6.42669 14.7637 5.80748 13.9918 5.6064L14.3812 5.04455L14.8135 4.94393C14.6306 4.609 14.0943 4.4075 13.4931 4.38664C13.0476 4.37575 12.5423 4.46841 12.1254 4.46131C12.0586 4.45968 11.9467 4.47856 11.9319 4.43496C11.9695 4.32778 12.2273 3.80905 12.3908 3.76363C13.4626 3.68173 14.4658 3.66609 15.128 4.05906C15.2975 4.15895 15.666 4.45209 15.7041 4.58582C15.7481 4.74132 15.6961 4.913 15.737 5.06533L16.0303 5.04779C16.3168 4.92199 16.0884 4.36667 16.0333 4.27267C15.7131 3.69657 14.7409 3.35471 13.7706 3.32173C13.4907 3.3118 12.8807 3.38955 12.6651 3.3534C12.421 3.31037 12.8973 2.84021 12.9173 2.67393C13.2172 2.64728 13.5137 2.63291 13.7901 2.65511C14.378 2.70036 15.422 2.97294 15.846 3.20876C16.2795 3.45099 17.0463 4.2511 16.6575 4.78825C16.49 5.00034 16.3053 4.99892 16.121 5.11487C15.7654 5.33472 15.6137 5.55029 15.0765 5.64526C15.3453 6.112 16.0522 6.75932 17.1221 6.75149C18.9884 6.72606 20.035 6.63428 21.7436 6.93855C22.8764 7.09286 24.2864 7.24158 25.5809 7.42455C27.4387 7.61511 28.2033 7.72644 28.787 8.4634L28.7872 8.45723Z" fill="#9B1C24"/>
<path d="M28.001 9C27.001 8.50049 27.0881 8.65664 26.522 8.50074C26.247 8.4199 25.3051 8.39997 24.902 8.34688C23.8616 8.18866 23.6725 8.113 22.4889 8.08099C21.4298 8.03658 20.5362 7.86032 19.5502 7.82387C18.4056 7.75884 16.9258 7.86166 15.9156 7.77211C14.9851 7.67216 13.532 7.20736 13.1622 6.83389C12.948 6.60938 12.884 6.49354 13.564 6.02527C13.9591 6.27274 14.3961 6.49961 14.8266 6.73558C15.336 6.99511 15.5808 7.14007 16.4125 7.24069C18.7824 7.45302 21.5325 7.35037 24.2189 7.7681C24.7777 7.83117 26.6186 8.06455 26.9752 8.1968C27.7489 8.34688 28.001 8.5 28.001 9Z" fill="#9B1C24"/>
</g>
<defs>
<clipPath id="clip0_317_4370">
<rect width="43" height="35" fill="white" transform="translate(0 0.5)"/>
</clipPath>
</defs>
</svg>
