<?xml version="1.0" encoding="UTF-8"?>
<svg id="Layer_1" data-name="Layer 1" xmlns="http://www.w3.org/2000/svg" viewBox="0 0 437.83 346.03">
  <defs>
    <style>
      .cls-1 {
        fill: #9b1c24;
      }

      .cls-2 {
        stroke: #00587a;
        stroke-miterlimit: 10;
      }

      .cls-2, .cls-3 {
        fill: #00587a;
      }
    </style>
  </defs>
  <g>
    <polyline class="cls-2" points="270.18 133.08 354.52 133.08 436.66 215.22 354.52 217.41 270.18 133.08 185.85 217.41"/>
    <polyline class="cls-2" points="178.73 90.91 263.07 90.91 305.23 133.08 270.18 133.08 245.54 157.72 178.73 90.91 94.4 175.25"/>
    <rect class="cls-3" x="255.99" y="175.25" width="27.63" height="32.2"/>
    <rect class="cls-3" x="163.76" y="138.59" width="27.63" height="32.2"/>
  </g>
  <path class="cls-3" d="M355.28,229.18c-7.37,16.6-26.14,52.76-66.53,81.25-32.37,22.84-65.13,31.23-88.21,34.29-16.16,2.14-32.55,1.67-48.54-1.49-22.35-4.41-53.72-14.62-83.73-38.85-36.61-29.56-52.57-64.93-58.85-81.54C4.64,207.92-.16,186.92,0,161.66.29,117.57,23.31,56.8,32.78,39.59c-6.63,24.54-22.9,98.65-5.03,149.97,4.71,13.54,10.53,25.28,16.5,35.27,30.64,54.03,53.92-3.99,103.09,20.37,0,0-29.1,13.79-22.23,33.24,3.89,11.02,17.4,15.44,27.47,9.52,4.59-2.7,9.84-7.08,15.45-14.09,18.53-23.13,51.86-12.71,51.86-12.71,0,0-33.55,20.72-8.75,33.92,9.06,4.82,23.76-8,31.71-19.7,2.85-4.2,6.33-7.92,10.2-11.2,6.22-5.28,15.19-10.78,24.38-9.14,0,0-10.01,38.52,34.3,8.89,31.33-20.95,43.55-34.74,43.55-34.74Z"/>
  <g id="WyMM7N">
    <g>
      <path class="cls-1" d="M102.04,14.71l-3.27,6.48c-5.67,1.69-11.38,3.04-17.07,4.92-13.78,4.6-32.24,14.91-45.24,22-1.68.96-10.29,6.66-10.67,6.33l2.53-14.67,13.85-5.76c17.26-5.13,36.7-14.99,55.5-19.03,1.16-.24,4.12-.95,4.37-.27Z"/>
      <path class="cls-1" d="M104.45,9.52c-5.85,1.53-11.76,2.51-17.71,4.36-8.58,2.67-17.45,6.36-25.84,8.92-5,1.57-9.78,2.43-14.57,3.94-4.73,1.49-12.31,4.1-16.64,5.27-.92.21,2.16-8.85,2.46-10.38,3.6-1.13,6.3-3.7,9.98-5.1,7.89-2.94,15.65-2.22,24.24-4.41,14.03-3.56,28.05-7.01,41.9-10.06.88.41-3.1,6.24-3.83,7.45Z"/>
      <path class="cls-1" d="M279.25,58.72c.56.74-.36,1.59-.03,2.33-2.34.56-2.92.15-3.67-.16-4.78-2.13-6.58-6.21-12.46-7.42-15.37-3.96-55.23-6.08-72.67-6.77-16.42-1.14-36.5.85-47.51-3.19-6.62-2.77-8.73-9.31-16.72-11.25l3.86-6.08,4.42-1.17c-1.98-3.5-7.54-5.52-13.74-5.57-4.58-.02-9.78,1.11-14.05,1.15-.69.02-1.85.22-2-.23.36-1.14,2.89-6.72,4.56-7.23,11.02-1.15,21.35-1.58,28.25,2.43,1.77,1.03,5.64,4.04,6.07,5.43.5,1.65.03,3.46.45,5.08l3.02-.25c2.91-1.41.41-7.23-.17-8.24-3.45-6.04-13.55-9.41-23.53-9.51-2.87-.04-9.13.95-11.37.62-2.51-.39,2.27-5.52,2.43-7.28,3.07-.37,6.14-.59,8.98-.43,6.07.32,16.89,2.93,21.3,5.34,4.54,2.46,12.61,10.76,8.76,16.54-1.68,2.3-3.56,2.32-5.43,3.6-3.59,2.41-5.1,4.76-10.63,5.89,2.88,4.89,10.31,11.56,21.34,11.22,19.21-.77,29.98-2,47.65.78,11.69,1.34,26.26,2.56,39.63,4.18,19.17,1.53,27.07,2.52,33.26,10.19Z"/>
      <path class="cls-1" d="M273.34,64.22c-2.99,1.09-2.41.44-3.87.46-11.83-.12-7.64-3.42-13.51-4.92-2.86-.79-12.57-.76-16.71-1.22-10.74-1.42-12.71-2.16-24.91-2.2-10.93-.2-20.15-1.83-30.34-1.97-11.81-.39-27.01,1.07-37.42.39-9.6-.82-24.68-5.36-28.58-9.24-2.26-2.33-2.94-3.53,3.93-8.7,4.14,2.52,8.69,4.82,13.18,7.2,5.3,2.61,7.86,4.11,16.45,4.96,24.46,1.63,52.75-.17,80.5,3.58,5.76.51,24.78,2.54,28.49,3.84,4.75,1.55,5.95,6.56,12.79,7.81Z"/>
    </g>
  </g>
</svg>